<svg width="56" height="55" viewBox="0 0 56 55" fill="none" xmlns="http://www.w3.org/2000/svg">
<path d="M44.6604 12.2146C41.6124 10.7938 38.3124 9.7625 34.8749 9.16667C34.8448 9.16571 34.8148 9.17136 34.7871 9.18324C34.7594 9.19512 34.7346 9.21293 34.7145 9.23542C34.302 9.99167 33.8208 10.9771 33.4999 11.7333C29.8539 11.1833 26.146 11.1833 22.4999 11.7333C22.1791 10.9542 21.6979 9.99167 21.2624 9.23542C21.2395 9.18959 21.1708 9.16667 21.102 9.16667C17.6645 9.7625 14.3874 10.7938 11.3166 12.2146C11.2937 12.2146 11.2708 12.2375 11.2479 12.2604C5.01453 21.5875 3.29578 30.6625 4.14369 39.6458C4.14369 39.6917 4.16661 39.7375 4.21244 39.7604C8.33744 42.7854 12.302 44.6188 16.2208 45.8333C16.2895 45.8563 16.3583 45.8333 16.3812 45.7875C17.2979 44.5271 18.1229 43.1979 18.8333 41.8C18.8791 41.7083 18.8333 41.6167 18.7416 41.5938C17.4354 41.0896 16.1979 40.4938 14.9833 39.8063C14.8916 39.7604 14.8916 39.6229 14.9604 39.5542C15.2124 39.3708 15.4645 39.1646 15.7166 38.9813C15.7624 38.9354 15.8312 38.9354 15.877 38.9583C23.7604 42.5563 32.2624 42.5563 40.0541 38.9583C40.0999 38.9354 40.1687 38.9354 40.2145 38.9813C40.4666 39.1875 40.7187 39.3708 40.9708 39.5771C41.0624 39.6458 41.0624 39.7833 40.9479 39.8292C39.7562 40.5396 38.4958 41.1125 37.1895 41.6167C37.0979 41.6396 37.0749 41.7542 37.0979 41.8229C37.8312 43.2208 38.6562 44.55 39.5499 45.8104C39.6187 45.8333 39.6874 45.8563 39.7562 45.8333C43.6979 44.6188 47.6624 42.7854 51.7874 39.7604C51.8333 39.7375 51.8562 39.6917 51.8562 39.6458C52.8645 29.2646 50.1833 20.2583 44.752 12.2604C44.7291 12.2375 44.7062 12.2146 44.6604 12.2146ZM20.0249 34.1688C17.6645 34.1688 15.6937 31.9917 15.6937 29.3104C15.6937 26.6292 17.6187 24.4521 20.0249 24.4521C22.4541 24.4521 24.3791 26.6521 24.3562 29.3104C24.3562 31.9917 22.4312 34.1688 20.0249 34.1688ZM35.9979 34.1688C33.6374 34.1688 31.6666 31.9917 31.6666 29.3104C31.6666 26.6292 33.5916 24.4521 35.9979 24.4521C38.427 24.4521 40.352 26.6521 40.3291 29.3104C40.3291 31.9917 38.427 34.1688 35.9979 34.1688Z" fill="white"/>
</svg>
