<svg width="56" height="55" viewBox="0 0 56 55" fill="none" xmlns="http://www.w3.org/2000/svg">
<path d="M28 4.58334C24.9906 4.58334 22.0106 5.17609 19.2302 6.32776C16.4498 7.47943 13.9235 9.16746 11.7955 11.2955C7.4978 15.5932 5.08337 21.4221 5.08337 27.5C5.08337 37.6292 11.6605 46.2229 20.7584 49.2708C21.9042 49.4542 22.2709 48.7437 22.2709 48.125V44.2521C15.923 45.6271 14.5709 41.1812 14.5709 41.1812C13.5167 38.5229 12.0271 37.8125 12.0271 37.8125C9.94171 36.3917 12.1875 36.4375 12.1875 36.4375C14.4792 36.5979 15.6938 38.7979 15.6938 38.7979C17.6875 42.2812 21.0563 41.25 22.3625 40.7C22.5688 39.2104 23.1646 38.2021 23.8063 37.6292C18.7188 37.0563 13.3792 35.0854 13.3792 26.3542C13.3792 23.8104 14.25 21.7708 15.7396 20.1438C15.5105 19.5708 14.7084 17.1875 15.9688 14.0938C15.9688 14.0938 17.8938 13.475 22.2709 16.4313C24.0813 15.9271 26.0521 15.675 28 15.675C29.948 15.675 31.9188 15.9271 33.7292 16.4313C38.1063 13.475 40.0313 14.0938 40.0313 14.0938C41.2917 17.1875 40.4896 19.5708 40.2605 20.1438C41.75 21.7708 42.6209 23.8104 42.6209 26.3542C42.6209 35.1083 37.2584 37.0333 32.148 37.6063C32.973 38.3167 33.7292 39.7146 33.7292 41.8458V48.125C33.7292 48.7437 34.0959 49.4771 35.2646 49.2708C44.3625 46.2 50.9167 37.6292 50.9167 27.5C50.9167 24.4905 50.324 21.5105 49.1723 18.7302C48.0206 15.9498 46.3326 13.4235 44.2046 11.2955C42.0766 9.16746 39.5503 7.47943 36.7699 6.32776C33.9895 5.17609 31.0095 4.58334 28 4.58334Z" fill="white"/>
</svg>
