<svg width="56" height="55" viewBox="0 0 56 55" fill="none" xmlns="http://www.w3.org/2000/svg">
<path fill-rule="evenodd" clip-rule="evenodd" d="M13.3501 48.0141C17.6011 49.3705 28 46.7156 28 46.7156C28 46.7156 38.399 49.3705 42.65 48.0141C49.991 45.6717 49.5627 34.7014 49.3692 29.7465C49.1734 24.7303 49.2656 19.547 47.8934 14.6792C46.9401 11.2974 45.5101 5.50001 43.1267 5.5C41.9779 5.5 39.3134 7.43246 36.93 10.3311C34.974 12.7101 33.4506 15.8275 30.8601 17.5779H25.14C22.5495 15.8275 21.0261 12.7101 19.0701 10.3311C16.6867 7.43246 14.0222 5.5 12.8734 5.5C10.49 5.50001 9.05997 11.2974 8.10673 14.6792C6.73449 19.547 6.82671 24.7303 6.63088 29.7465C6.43741 34.7014 6.00912 45.6717 13.3501 48.0141ZM10.8659 23.3878C11.3205 22.8493 14.5889 22.7926 19.42 25.3077C24.2511 27.8228 25.1438 31.0623 24.4721 36.2737C20.3772 35.4103 15.7858 34.8152 13.2234 31.1051C11.662 28.8444 10.4114 23.9262 10.8659 23.3878ZM45.1342 23.3878C44.6796 22.8493 41.4112 22.7926 36.5801 25.3077C31.749 27.8228 30.8563 31.0623 31.528 36.2737C35.6229 35.4103 40.2143 34.8152 42.7767 31.1051C44.3381 28.8444 45.5887 23.9262 45.1342 23.3878Z" fill="white"/>
</svg>
