<svg width="111" height="31" viewBox="0 0 111 31" fill="none" xmlns="http://www.w3.org/2000/svg">
<path d="M87.7761 22.156C87.5174 20.5286 87.6579 18.9327 88.7761 18.348C89.8943 17.7633 105.54 16.456 105.54 16.456C105.452 15.3414 105.027 14.3734 104.264 13.552C103.502 12.7307 102.387 12.32 100.92 12.32C99.4242 12.32 98.1775 12.848 97.1802 13.904C96.1828 14.9307 95.6695 16.412 95.6402 18.348L95.7722 20.636C96.0362 22.5134 96.7548 23.892 97.9282 24.772C99.1308 25.652 100.642 26.092 102.46 26.092C103.692 26.092 104.836 25.916 105.892 25.564C106.948 25.1827 107.784 24.772 108.4 24.332C108.811 24.596 109.134 24.9334 109.368 25.344C109.632 25.7254 109.764 26.1507 109.764 26.62C109.764 27.3827 109.427 28.0427 108.752 28.6C108.078 29.128 107.168 29.5387 106.024 29.832C104.88 30.1254 103.575 30.272 102.108 30.272C99.8495 30.272 97.8402 29.8614 96.0802 29.04C94.3495 28.1894 92.9855 26.928 91.9882 25.256C91.0202 23.584 90.5362 21.5014 90.5362 19.008C90.5362 17.2187 90.8148 15.6494 91.3722 14.3C91.9295 12.9507 92.6775 11.836 93.6162 10.956C94.5842 10.0467 95.6988 9.37203 96.9602 8.93203C98.2215 8.46269 99.5415 8.22803 100.92 8.22803C102.856 8.22803 104.543 8.62403 105.98 9.41603C107.447 10.1787 108.591 11.2494 109.412 12.628C110.263 14.0067 110.688 15.5907 110.688 17.38C110.688 18.2014 110.468 18.8174 110.028 19.228C109.618 19.6094 109.031 19.844 108.268 19.932L87.7761 22.156Z" fill="url(#paint0_radial_105_103)"/>
<path d="M70.7761 14.432C70.4493 12.5776 71.0949 10.7069 72.2761 10.156C73.4573 9.60509 87.8216 10.208 87.8216 10.208C87.9389 10.4133 88.0562 10.7067 88.1736 11.088C88.3202 11.44 88.3936 11.8507 88.3936 12.32C88.3936 13.0533 88.2176 13.596 87.8656 13.948C87.5429 14.2707 87.0736 14.432 86.4576 14.432H70.7761ZM79.8136 8.096V13.772H74.6216V7.876C74.6216 6.028 74.9882 4.532 75.7215 3.388C76.4842 2.21467 77.5256 1.364 78.8456 0.835999C80.1949 0.278666 81.7202 0 83.4216 0C85.3282 0 86.7802 0.249334 87.7776 0.748001C88.7749 1.24667 89.2736 1.99467 89.2736 2.992C89.2736 3.432 89.1709 3.84267 88.9656 4.224C88.7896 4.576 88.5696 4.86933 88.3056 5.104C87.7482 4.86933 87.1176 4.67867 86.4136 4.532C85.7389 4.38533 85.0202 4.312 84.2576 4.312C82.7029 4.312 81.5736 4.60533 80.8696 5.192C80.1656 5.77867 79.8136 6.74667 79.8136 8.096ZM74.6216 12.232H80.0336V29.568C79.7989 29.656 79.4616 29.7293 79.0216 29.788C78.5816 29.876 78.0975 29.92 77.5695 29.92C76.5722 29.92 75.8242 29.744 75.3256 29.392C74.8562 29.0107 74.6216 28.3507 74.6216 27.412V12.232Z" fill="url(#paint1_radial_105_103)"/>
<path fill-rule="evenodd" clip-rule="evenodd" d="M62.1483 25.916C61.4443 26.092 60.6523 26.18 59.7723 26.18C58.3643 26.18 57.3229 25.9307 56.6483 25.432C55.9736 24.9334 55.6363 24.2587 55.6363 23.408C55.6363 22.5867 55.9443 21.9707 56.5603 21.56C57.2056 21.12 58.1296 20.856 59.3323 20.768L63.6671 20.7237L68.9683 20.6694V16.901L63.6501 17.0228L57.6603 17.16C55.2843 17.3947 53.4656 18.04 52.2043 19.096C50.9723 20.1227 50.3563 21.6187 50.3563 23.584C50.3563 25.8134 51.1923 27.5 52.8643 28.644C54.5363 29.7587 56.8389 30.316 59.7723 30.316C61.3563 30.316 62.7789 30.1547 64.0403 29.832C65.3016 29.5387 66.3429 29.1574 67.1643 28.688C67.6923 28.3654 68.1176 27.9987 68.4403 27.588C68.7923 27.1774 68.9683 26.62 68.9683 25.916V20.6694V16.901V15.796C68.9683 13.1854 68.1176 11.2787 66.4163 10.076C64.7149 8.84403 62.4269 8.22803 59.5523 8.22803C58.4669 8.22803 57.3669 8.31603 56.2523 8.49203C55.1669 8.66803 54.2136 8.94669 53.3923 9.32803C52.2189 9.82669 51.6323 10.604 51.6323 11.66C51.6323 12.1 51.7496 12.5254 51.9843 12.936C52.2189 13.3467 52.4829 13.6694 52.7763 13.904C53.6269 13.4934 54.5949 13.1414 55.6803 12.848C56.7656 12.5547 57.8803 12.408 59.0243 12.408C60.4909 12.408 61.6203 12.672 62.4123 13.2C63.2336 13.728 63.6443 14.5787 63.6443 15.752L63.6501 17.0228L63.6671 20.7237L63.6883 25.344C63.3656 25.5494 62.8523 25.74 62.1483 25.916Z" fill="url(#paint2_radial_105_103)"/>
<path d="M63.6671 20.7237L68.9683 20.6694V16.901L63.6501 17.0228L63.6671 20.7237Z" fill="url(#paint3_radial_105_103)"/>
<path d="M45.2186 8.40399C45.9813 8.40399 46.6119 8.57999 47.1106 8.93199C47.6093 9.28399 47.8586 9.84132 47.8586 10.604C47.8586 11.0733 47.6973 11.8653 47.3746 12.98C47.0813 14.0653 46.6853 15.3413 46.1866 16.808C45.6879 18.2747 45.1306 19.7853 44.5146 21.34C43.9279 22.8947 43.3266 24.376 42.7106 25.784C42.0946 27.1627 41.5373 28.3213 41.0386 29.26C40.7746 29.4653 40.3493 29.6413 39.7626 29.788C39.2053 29.9347 38.5746 30.008 37.8706 30.008C37.0493 30.008 36.3453 29.8907 35.7586 29.656C35.1719 29.4507 34.7613 29.1133 34.5266 28.644C34.2039 28.028 33.7933 27.1627 33.2946 26.048C32.8253 24.9333 32.3119 23.6573 31.7546 22.22C31.1973 20.7827 30.6399 19.3013 30.0826 17.776C29.5253 16.2507 29.0119 14.784 28.5426 13.376C28.1026 11.968 27.7359 10.7213 27.4426 9.63599C27.7653 9.28399 28.1759 8.99066 28.6746 8.75599C29.2026 8.52132 29.7453 8.40399 30.3026 8.40399C31.0653 8.40399 31.6813 8.57999 32.1506 8.93199C32.6493 9.25466 33.0159 9.85599 33.2506 10.736L35.4946 18.084C35.7293 18.8467 35.9933 19.6827 36.2866 20.592C36.6093 21.472 36.9026 22.3227 37.1666 23.144C37.4306 23.936 37.6506 24.6107 37.8266 25.168H38.0026C38.8826 22.5867 39.7333 19.9027 40.5546 17.116C41.4053 14.3293 42.1386 11.616 42.7546 8.97599C43.4586 8.59466 44.2799 8.40399 45.2186 8.40399Z" fill="url(#paint4_radial_105_103)"/>
<path d="M14.3722 7.48001H14.1522C13.7708 8.53601 13.3455 9.73868 12.8762 11.088C12.4362 12.4373 11.9668 13.8453 11.4682 15.312C10.9695 16.7493 10.5002 18.1427 10.0602 19.492L9.44418 22.22C9.26818 22.7773 9.07751 23.3933 8.87218 24.068C8.69618 24.7427 8.49085 25.432 8.25618 26.136C8.05085 26.8107 7.84551 27.456 7.64018 28.072C7.46418 28.688 7.30284 29.2307 7.15618 29.7C6.86284 29.788 6.54017 29.8613 6.18817 29.92C5.86551 30.008 5.46951 30.052 5.00017 30.052C4.06151 30.052 3.31351 29.876 2.75617 29.524C2.22817 29.1427 1.96417 28.5853 1.96417 27.852C1.96417 27.5293 2.00817 27.192 2.09617 26.84C2.21351 26.488 2.33084 26.092 2.44817 25.652C2.74151 24.684 3.13751 23.4813 3.63617 22.044C4.13484 20.5773 4.67751 18.9933 5.26417 17.292C5.85084 15.5907 6.45218 13.8747 7.06818 12.144C7.71351 10.4133 8.31485 8.80001 8.87218 7.30401C9.42951 5.77868 9.91351 4.50268 10.3242 3.47601C10.6762 3.27068 11.2188 3.08001 11.9522 2.90401C12.6855 2.72801 13.4335 2.64001 14.1962 2.64001C15.1935 2.64001 16.1029 2.78668 16.9242 3.08001C17.7749 3.37335 18.3029 3.84268 18.5082 4.48801C19.1242 6.10135 19.7842 7.94935 20.4882 10.032C21.1922 12.1147 21.9109 14.2853 22.6442 16.544C23.3775 18.8027 24.0815 21.0027 24.7562 23.144C25.4309 25.2853 26.0322 27.2214 26.5602 28.952C26.2669 29.2747 25.8562 29.5387 25.3282 29.744C24.8295 29.9493 24.2429 30.052 23.5682 30.052C22.6002 30.052 21.8962 29.876 21.4562 29.524C21.0455 29.1427 20.7229 28.5707 20.4882 27.808C18.9451 23.5526 18.1077 19.1262 16.7042 14.828C16.2642 13.3613 15.8388 11.9973 15.4282 10.736C15.0175 9.47468 14.6655 8.38935 14.3722 7.48001ZM0.0281483 21.648C-0.223906 20.156 1.26823 17.636 2.44817 17.5C3.62812 17.364 17.8321 18.6612 17.8321 18.6612L19 23L0.0281483 21.648Z" fill="url(#paint5_radial_105_103)"/>
<defs>
<radialGradient id="paint0_radial_105_103" cx="0" cy="0" r="1" gradientUnits="userSpaceOnUse" gradientTransform="translate(87.6652 8.22803) rotate(43.7556) scale(31.8747 104.877)">
<stop offset="0.0001" stop-color="#B5A0FF"/>
<stop offset="1" stop-color="#9F84FF"/>
</radialGradient>
<radialGradient id="paint1_radial_105_103" cx="0" cy="0" r="1" gradientUnits="userSpaceOnUse" gradientTransform="translate(70.6915) rotate(58.1573) scale(35.2207 103.975)">
<stop offset="0.0001" stop-color="#B5A0FF"/>
<stop offset="1" stop-color="#9F84FF"/>
</radialGradient>
<radialGradient id="paint2_radial_105_103" cx="0" cy="0" r="1" gradientUnits="userSpaceOnUse" gradientTransform="translate(50.3563 8.22803) rotate(49.8815) scale(28.884 93.7486)">
<stop offset="0.0001" stop-color="#B5A0FF"/>
<stop offset="1" stop-color="#9F84FF"/>
</radialGradient>
<radialGradient id="paint3_radial_105_103" cx="0" cy="0" r="1" gradientUnits="userSpaceOnUse" gradientTransform="translate(50.3563 8.22803) rotate(49.8815) scale(28.884 93.7486)">
<stop offset="0.0001" stop-color="#B5A0FF"/>
<stop offset="1" stop-color="#9F84FF"/>
</radialGradient>
<radialGradient id="paint4_radial_105_103" cx="0" cy="0" r="1" gradientUnits="userSpaceOnUse" gradientTransform="translate(27.4426 8.40399) rotate(46.6194) scale(29.7245 97.738)">
<stop offset="0.0001" stop-color="#B5A0FF"/>
<stop offset="1" stop-color="#9F84FF"/>
</radialGradient>
<radialGradient id="paint5_radial_105_103" cx="0" cy="0" r="1" gradientUnits="userSpaceOnUse" gradientTransform="translate(0 2.64001) rotate(45.9042) scale(38.1688 125.642)">
<stop offset="0.0001" stop-color="#B5A0FF"/>
<stop offset="1" stop-color="#9F84FF"/>
</radialGradient>
</defs>
</svg>
